Coordinates
version=1
nRows=7
nColumns=63
inDegrees=yes

Units are S.I. units (second, meters, Newtons, ...)
If the header above contains a line with 'inDegrees', this indicates whether rotational values are in degrees (yes) or radians (no).

endheader
time	pelvis_tilt	pelvis_list	pelvis_rotation	pelvis_tx	pelvis_ty	pelvis_tz	hip_flexion_r	hip_adduction_r	hip_rotation_r	knee_angle_r	knee_angle_r_beta	ankle_angle_r	subtalar_angle_r	mtp_angle_r	hip_flexion_l	hip_adduction_l	hip_rotation_l	knee_angle_l	knee_angle_l_beta	ankle_angle_l	subtalar_angle_l	mtp_angle_l	L5_S1_Flex_Ext	L5_S1_Lat_Bending	L5_S1_axial_rotation	L4_L5_Flex_Ext	L4_L5_Lat_Bending	L4_L5_axial_rotation	L3_L4_Flex_Ext	L3_L4_Lat_Bending	L3_L4_axial_rotation	L2_L3_Flex_Ext	L2_L3_Lat_Bending	L2_L3_axial_rotation	L1_L2_Flex_Ext	L1_L2_Lat_Bending	L1_L2_axial_rotation	L1_T12_Flex_Ext	L1_T12_Lat_Bending	L1_T12_axial_rotation	Abs_r3	Abs_r2	Abs_r1	Abs_t1	Abs_t2	neck_flexion	neck_bending	neck_rotation	arm_flex_r	arm_add_r	arm_rot_r	elbow_flex_r	pro_sup_r	wrist_flex_r	wrist_dev_r	arm_flex_l	arm_add_l	arm_rot_l	elbow_flex_l	pro_sup_l	wrist_flex_l	wrist_dev_l
      3.55000000	      3.28808581	     -3.80413254	     97.71319686	      0.13224349	      0.57812526	      0.86553948	     11.84238849	     -2.09814672	    -15.36635974	     10.55944484	      0.18429708	     27.84930721	     16.75451135	      0.00000000	     13.02496838	      2.75471708	      9.10761012	      7.76614104	      0.13554473	     21.31638643	    -10.74807438	      0.00000000	      0.32367077	     -0.16830500	     -0.09357281	      0.60108899	     -0.22384565	     -0.09942111	      0.53175871	     -0.40921678	     -0.09942111	      0.36992332	     -0.40921678	     -0.08187621	      0.30056068	     -0.34320756	     -0.07602791	      0.18494548	     -0.26070444	     -0.07017961	      2.31194794	     -1.90389982	     -0.52042388	      0.00000000	      0.00000000	     20.59244381	      0.10217255	      9.84416500	     29.96085189	     -4.55634664	    102.18368796	     33.71429698	     58.75900811	     -8.26422690	     -7.89251642	     19.19951105	     -5.90661623	     70.76642251	     37.01821581	     54.05838298	     -4.02968277	     -0.58452512
      3.56666667	      3.28533062	     -3.77631739	     97.77160971	      0.13214528	      0.57818140	      0.86560172	     11.77584932	     -2.10797314	    -15.46678393	     10.55038241	      0.18413891	     27.78787884	     16.63819561	      0.00000000	     13.01069259	      2.82882095	      9.91546557	      7.72883160	      0.13489356	     21.21985868	    -11.82792052	      0.00000000	      0.31638403	     -0.16525667	     -0.09896942	      0.58755678	     -0.21979137	     -0.10515500	      0.51978733	     -0.40180507	     -0.10515500	      0.36159531	     -0.40180507	     -0.08659824	      0.29379421	     -0.33699140	     -0.08041265	      0.18078184	     -0.25598258	     -0.07422706	      2.25989950	     -1.86941650	     -0.55043820	      0.00000000	      0.00000000	     20.74020975	      0.08132810	     10.04182072	     30.02897796	     -4.58298628	    102.32223035	     33.79115064	     58.95779428	     -8.62474349	     -7.73520719	     19.17582692	     -5.92718371	     70.69021096	     37.06172190	     53.73537621	     -3.86001070	     -0.88798331
      3.58333333	      3.13622402	     -3.80595364	     97.55907835	      0.13262014	      0.57837028	      0.86537171	     11.81965396	     -2.22191766	    -15.23042972	     10.60059024	      0.18501520	     27.78909446	     16.57149171	      0.00000000	     12.88646086	      2.85998084	      9.03814706	      7.44982316	      0.13002394	     21.60635694	    -10.48819251	      0.00000000	      0.32179539	     -0.18369020	     -0.05111583	      0.59760623	     -0.24430796	     -0.05431057	      0.52867765	     -0.44662435	     -0.05431057	      0.36777996	     -0.44662435	     -0.04472635	      0.29881920	     -0.37458105	     -0.04153162	      0.18387389	     -0.28453612	     -0.03833688	      2.29855232	     -2.07794026	     -0.28429094	      0.00000000	      0.00000000	     20.67530781	      0.13143541	     10.22477500	     29.93355656	     -4.46428985	    102.30689181	     33.60161347	     58.66616513	     -8.43937475	     -7.78683421	     19.13405228	     -6.09356370	     70.70941261	     37.17157158	     53.44336850	     -3.47232916	     -1.30164087
      3.60000000	      3.21049260	     -3.75781542	     97.71943172	      0.13229445	      0.57855710	      0.86558403	     11.72327209	     -2.16201920	    -15.42062484	     10.50286974	      0.18330966	     27.68613824	     16.57501694	      0.00000000	     12.90587098	      2.85121657	      9.77838374	      7.53176570	      0.13145411	     21.62110185	    -11.00733174	      0.00000000	      0.30847644	     -0.17131088	     -0.07617110	      0.57287159	     -0.22784347	     -0.08093179	      0.50679594	     -0.41652527	     -0.08093179	      0.35255772	     -0.41652527	     -0.06664971	      0.28645122	     -0.34933714	     -0.06188902	      0.17626344	     -0.26536055	     -0.05712832	      2.20341634	     -1.93790291	     -0.42364079	      0.00000000	      0.00000000	     20.79523920	      0.05936832	     10.70553288	     29.98463108	     -4.54109175	    102.26697187	     33.67668327	     59.37502715	     -8.76795842	     -7.61534020	     19.15989220	     -6.08137333	     70.64385118	     37.03559740	     53.87566507	     -2.91765518	     -2.06761927
      3.61666667	      3.20741434	     -3.73631303	     97.66085864	      0.13240500	      0.57879359	      0.86553059	     11.69604089	     -2.13919444	    -15.33216539	     10.44926365	      0.18237406	     27.65011273	     16.62148445	      0.00000000	     12.83754484	      2.82237653	      9.75543757	      7.49679965	      0.13084384	     21.74625003	    -10.69940306	      0.00000000	      0.30386323	     -0.17073982	     -0.06389015	      0.56430441	     -0.22708396	     -0.06788328	      0.49921691	     -0.41513679	     -0.06788328	      0.34728529	     -0.41513679	     -0.05590388	      0.28216740	     -0.34817263	     -0.05191074	      0.17362745	     -0.26447597	     -0.04791761	      2.17046469	     -1.93144294	     -0.35533782	      0.00000000	      0.00000000	     20.75107643	      0.07283763	     11.17698357	     29.94380907	     -4.53607839	    102.16243601	     33.60789570	     59.63364227	     -8.70304439	     -7.65581832	     19.12330034	     -6.14158162	     70.54194385	     36.95711990	     54.09290059	     -2.39991681	     -2.75349919
      3.63333333	      3.22702014	     -3.71703003	     97.59823962	      0.13248214	      0.57900917	      0.86547816	     11.67470158	     -2.08426114	    -15.16044870	     10.37293276	      0.18104183	     27.59547282	     16.62643492	      0.00000000	     12.75844439	      2.77554511	      9.90753625	      7.47338952	      0.13043525	     21.75394137	    -10.67739506	      0.00000000	      0.30099856	     -0.16706229	     -0.05366497	      0.55898443	     -0.22219284	     -0.05701903	      0.49451054	     -0.40619525	     -0.05701903	      0.34401126	     -0.40619525	     -0.04695685	      0.27950727	     -0.34067342	     -0.04360279	      0.17199058	     -0.25877948	     -0.04024873	      2.15000263	     -1.88984201	     -0.29846848	      0.00000000	      0.00000000	     20.65179658	      0.05754640	     11.71947064	     29.93893290	     -4.55233745	    102.13264495	     33.60502731	     59.65600602	     -8.57925954	     -7.66822392	     19.07409934	     -6.16805503	     70.46184835	     36.87568454	     54.09617004	     -2.09567876	     -3.36881234
      3.65000000	      3.32530451	     -3.69456704	     97.61703968	      0.13237041	      0.57914347	      0.86545943	     11.63784378	     -1.97137767	    -15.18176890	     10.26423519	      0.17914470	     27.54559734	     16.77785670	      0.00000000	     12.70560515	      2.70288433	     10.58649035	      7.51238257	      0.13111581	     21.52294679	    -11.43777551	      0.00000000	      0.29855439	     -0.15488626	     -0.05501189	      0.55444536	     -0.20599873	     -0.05845013	      0.49049501	     -0.37659046	     -0.05845013	      0.34121781	     -0.37659046	     -0.04813540	      0.27723761	     -0.31584407	     -0.04469716	      0.17059398	     -0.23991882	     -0.04125892	      2.13254415	     -1.75210440	     -0.30595962	      0.00000000	      0.00000000	     20.56632525	     -0.03674967	     12.08363901	     29.91129776	     -4.70195729	    101.90360967	     33.80680930	     60.05151447	     -8.75188401	     -7.55732885	     19.02781286	     -6.10655446	     70.31904583	     36.76751053	     54.32526241	     -1.99120901	     -3.64954988
